<?xml version="1.0" encoding="UTF-8" standalone="no"?>
<svg
   width="2000"
   height="600"
   viewBox="0 0 2000 600"
   fill="none"
   version="1.1"
   id="svg2"
   sodipodi:docname="VCCA_logo.svg"
   inkscape:version="1.4 (86a8ad7, 2024-10-11)"
   xmlns:inkscape="http://www.inkscape.org/namespaces/inkscape"
   xmlns:sodipodi="http://sodipodi.sourceforge.net/DTD/sodipodi-0.dtd"
   xmlns="http://www.w3.org/2000/svg"
   xmlns:svg="http://www.w3.org/2000/svg">
  <sodipodi:namedview
     id="namedview2"
     pagecolor="#ffffff"
     bordercolor="#000000"
     borderopacity="0"
     inkscape:showpageshadow="2"
     inkscape:pageopacity="0.0"
     inkscape:pagecheckerboard="false"
     inkscape:deskcolor="#d1d1d1"
     inkscape:zoom="0.30087393"
     inkscape:cx="619.86096"
     inkscape:cy="1071.8775"
     inkscape:window-width="1920"
     inkscape:window-height="1111"
     inkscape:window-x="-9"
     inkscape:window-y="-9"
     inkscape:window-maximized="1"
     inkscape:current-layer="svg2"
     showborder="true" />
  <defs
     id="defs2" />
  <g
     id="g1"
     transform="matrix(2.4657763,0,0,2.4657763,-59.600428,-328.60978)">
    <path
       id="path2"
       style="fill:#000000"
       d="m 747.02465,148.903 c -12.896,0 -19.73014,6.90856 -24.74414,18.97656 l -78.35352,188.09961 h 56.08594 l 10.84961,-31.34961 h 68.32812 l 6.59766,31.34961 h 49.48633 L 792.10277,148.903 Z m 7.29297,55.94531 16.625,77.70508 h -44.53711 z" />
    <path
       id="path3"
       style="fill:#000000"
       d="m 25.305823,153.88847 -1.134766,6.59961 c 0,0 19.703019,3.60674 37.449219,10.80274 22.85,8.25 24.477172,13.05465 28.326172,27.97265 l 41.933592,161.70118 h 56.21289 L 274.6945,153.88847 H 218.61051 L 162.96403,294.67949 140.257,175.33965 c -2.083,-13.658 -12.63002,-21.45118 -25.54102,-21.45118 z" />
    <path
       d="m 344.90502,359.30255 q -40.42465,0 -62.3771,-19.81075 -21.95246,-19.94461 -21.95246,-57.02285 0,-29.31456 9.63766,-53.14101 9.77152,-23.82644 26.77129,-41.22778 16.5982,-16.86591 39.75537,-26.36972 23.29102,-9.50381 48.8576,-9.50381 20.61389,0 38.28294,4.28341 17.66905,4.14955 31.85784,12.31479 l -11.77937,48.32218 h -5.88968 q -12.71637,-13.65336 -25.29887,-20.07847 -12.58251,-6.42511 -29.58228,-6.42511 -29.84998,0 -49.25917,23.96031 -19.27533,23.9603 -19.27533,61.03853 0,23.82645 10.70852,34.53497 10.70851,10.70851 31.32241,10.70851 18.47219,0 34.66882,-7.3621 16.19663,-7.49596 30.65312,-19.00762 h 5.35426 l -11.64551,47.6529 q -6.02354,2.40941 -14.05493,5.88968 -8.03138,3.34641 -15.39349,5.48812 -9.63766,2.81098 -18.07062,4.2834 -8.2991,1.47242 -23.29102,1.47242 z"
       id="text1"
       style="font-style:italic;font-weight:bold;font-size:274.138px;font-family:'Myriad Pro', sans-serif;fill:#000000;stroke-width:3.80747"
       aria-label="C" />
    <path
       d="m 543.39785,359.30256 q -40.42464,0 -62.3771,-19.81075 -21.95246,-19.94461 -21.95246,-57.02285 0,-29.31456 9.63767,-53.14101 9.77152,-23.82644 26.77128,-41.22778 16.5982,-16.86591 39.75537,-26.36972 23.29102,-9.50381 48.8576,-9.50381 20.61389,0 38.28294,4.28341 17.66906,4.14955 31.85784,12.31479 l -11.77937,48.32218 h -5.88968 q -12.71636,-13.65336 -25.29887,-20.07847 -12.58251,-6.42511 -29.58227,-6.42511 -29.84999,0 -49.25918,23.96031 -19.27532,23.9603 -19.27532,61.03853 0,23.82645 10.70851,34.53497 10.70852,10.70851 31.32241,10.70851 18.47219,0 34.66882,-7.3621 16.19663,-7.49596 30.65312,-19.00762 h 5.35426 l -11.64551,47.6529 q -6.02354,2.40941 -14.05493,5.88968 -8.03138,3.34641 -15.39349,5.48812 -9.63766,2.81098 -18.07062,4.2834 -8.2991,1.47242 -23.29102,1.47242 z"
       id="text4"
       style="font-style:italic;font-weight:bold;font-size:274.138px;font-family:'Myriad Pro', sans-serif;fill:#000000;stroke-width:3.80747"
       aria-label="C" />
  </g>
</svg>
